<svg width="239.23999999999998" height="239.23999999999998" xmlns="http://www.w3.org/2000/svg">

 <g>
  <title>background</title>
  <rect fill="none" id="canvas_background" height="402" width="582" y="-1" x="-1"/>
 </g>
 <g>
  <title>Layer 1</title>
  <g id="svg_1">
   <path fill="#06ad00" id="svg_2" d="m228.965,126.963l-4.429,-0.032c-4.024,-0.028 -9.104,-3.01 -11.092,-6.511l-21.43,-37.733c-2.639,-4.647 -8.893,-8.288 -14.237,-8.288l-94.562,0c-5.307,0 -11.717,3.492 -14.595,7.951l-25.167,39.001c-2.275,3.525 -7.648,7.303 -11.734,8.249l-22.059,5.113c-5.326,1.235 -9.66,6.688 -9.66,12.157l0,38.446c0,5.674 4.616,10.29 10.29,10.29l16.437,0c3.487,11.968 14.547,20.74 27.624,20.74c13.077,0 24.138,-8.772 27.624,-20.74l62.134,0c3.486,11.968 14.547,20.74 27.624,20.74c13.077,0 24.137,-8.772 27.623,-20.74l29.595,0c5.674,0 10.29,-4.616 10.29,-10.29l0,-48.002c-0.001,-5.667 -4.61,-10.311 -10.276,-10.351zm-174.614,74.902c-7.894,0 -14.292,-6.4 -14.292,-14.293c0,-7.895 6.398,-14.294 14.292,-14.294c7.895,0 14.293,6.399 14.293,14.294c0,7.892 -6.399,14.293 -14.293,14.293zm69.322,-72.252l-59.873,0c-3.76,0 -5.233,-2.625 -3.273,-5.834l18.235,-29.867c1.96,-3.209 6.639,-5.834 10.398,-5.834l34.513,0l0,41.535zm48.059,72.252c-7.893,0 -14.294,-6.4 -14.294,-14.293c0,-7.895 6.4,-14.294 14.294,-14.294c7.893,0 14.292,6.399 14.292,14.294c0,7.892 -6.399,14.293 -14.292,14.293zm20.843,-72.252l-52.455,0l0,-41.535l30.073,0c3.76,0 8.295,2.708 10.078,6.018l15.897,29.5c1.784,3.309 0.167,6.017 -3.593,6.017z"/>
   <path fill="#06ad00" id="svg_3" d="m132.186,47.066l1.453,0c0.114,0 0.203,-0.034 0.251,-0.096c0.047,-0.062 0.058,-0.156 0.029,-0.266l-0.971,-3.767l-1.031,3.777c-0.029,0.107 -0.021,0.199 0.025,0.259c0.045,0.061 0.132,0.093 0.244,0.093z"/>
   <path fill="#06ad00" id="svg_4" d="m82.795,56.974l21.453,9.734c1.872,0.85 4.95,1.516 7.008,1.516l61.318,0c2.767,0 5.018,-2.251 5.018,-5.018l0,-35.294c0,-2.767 -2.251,-5.017 -5.018,-5.017l-61.318,0c-2.058,0 -5.136,0.666 -7.008,1.516l-21.453,9.734c-2.25,1.021 -4.012,3.755 -4.012,6.225l0,10.381c0,2.468 1.762,5.203 4.012,6.223zm73.307,-19.818c0,-0.871 0.708,-1.58 1.579,-1.58l10.579,0c0.871,0 1.579,0.709 1.579,1.58l0,1.351c0,0.871 -0.708,1.58 -1.579,1.58l-6.536,0c-0.29,0 -0.526,0.236 -0.526,0.526l0,1.758c0,0.29 0.236,0.526 0.526,0.526l4.197,0c0.871,0 1.58,0.708 1.58,1.579l0,1.352c0,0.87 -0.708,1.581 -1.578,1.584l-4.197,0.018c-0.291,0.001 -0.528,0.239 -0.528,0.53l0,2.545c0,0.291 0.236,0.527 0.526,0.527l6.841,0c0.871,0 1.579,0.708 1.579,1.579l0,1.351c0,0.871 -0.708,1.579 -1.579,1.579l-10.884,0c-0.871,0 -1.579,-0.708 -1.579,-1.579l0,-16.806zm-14.287,0c0,-0.871 0.709,-1.58 1.58,-1.58l1.935,0c0.871,0 1.58,0.709 1.58,1.58l0,13.349c0,0.291 0.236,0.527 0.526,0.527l5.876,0c0.871,0 1.579,0.708 1.579,1.579l0,1.351c0,0.871 -0.708,1.579 -1.579,1.579l-9.917,0c-0.871,0 -1.58,-0.708 -1.58,-1.579l0,-16.806zm-16.97,16.702l4.881,-16.89c0.225,-0.78 1.038,-1.393 1.851,-1.393l2.673,0c0.812,0 1.625,0.613 1.848,1.396l4.811,16.887c0.121,0.426 0.052,0.854 -0.191,1.177c-0.243,0.322 -0.637,0.507 -1.079,0.507l-1.986,0c-0.819,0 -1.62,-0.622 -1.823,-1.416l-0.495,-1.925c-0.083,-0.328 -0.467,-0.625 -0.805,-0.625l-3.258,0c-0.341,0 -0.734,0.3 -0.825,0.63l-0.533,1.935c-0.218,0.786 -1.026,1.401 -1.841,1.401l-1.96,0c-0.442,0 -0.836,-0.185 -1.078,-0.507c-0.244,-0.323 -0.313,-0.751 -0.19,-1.177zm-14.782,-3.392c0.143,-0.396 0.437,-0.708 0.828,-0.88l1.301,-0.566c0.229,-0.121 0.495,-0.189 0.76,-0.189c0.627,0 1.188,0.371 1.667,1.104c0.209,0.321 0.447,0.594 0.71,0.812c0.257,0.215 0.559,0.385 0.896,0.507c0.585,0.212 1.392,0.241 2.12,0.093c0.277,-0.055 0.522,-0.147 0.73,-0.275c0.184,-0.113 0.327,-0.266 0.437,-0.466c0.108,-0.197 0.163,-0.467 0.163,-0.801c0,-0.282 -0.075,-0.707 -0.729,-1.137c-0.675,-0.449 -1.502,-0.859 -2.463,-1.218c-2.015,-0.764 -3.544,-1.571 -4.548,-2.399c-1.141,-0.971 -1.716,-2.312 -1.716,-3.99c0,-1.665 0.662,-3.059 1.969,-4.143c1.28,-1.059 2.89,-1.596 4.785,-1.596c1.582,0 3.026,0.394 4.292,1.172c0.638,0.382 1.214,0.884 1.708,1.488c0.489,0.597 0.823,1.262 0.837,1.29c0.193,0.385 0.212,0.821 0.051,1.198c-0.161,0.376 -0.489,0.665 -0.902,0.791l-1.705,0.522c-0.197,0.044 -0.349,0.061 -0.494,0.061c-0.981,0 -1.487,-0.729 -1.703,-1.039c-0.168,-0.24 -0.331,-0.433 -0.504,-0.598c-0.367,-0.355 -0.892,-0.527 -1.604,-0.527c-0.234,0 -0.476,0.026 -0.718,0.077c-0.228,0.048 -0.435,0.124 -0.614,0.224c-0.153,0.086 -0.273,0.201 -0.369,0.354c-0.092,0.145 -0.136,0.323 -0.136,0.548c0,0.148 0.049,0.292 0.149,0.441c0.079,0.116 0.256,0.301 0.649,0.522c0.781,0.44 1.676,0.837 2.66,1.182c1.484,0.507 2.836,1.228 4.013,2.141c1.331,0.993 2.009,2.452 2.009,4.33c0,2 -0.66,3.58 -1.963,4.695c-1.283,1.064 -3.072,1.601 -5.325,1.601c-1.457,0 -2.895,-0.39 -4.272,-1.159c-0.74,-0.397 -1.397,-0.921 -1.945,-1.55c-0.545,-0.629 -0.93,-1.388 -0.945,-1.419c-0.193,-0.378 -0.22,-0.805 -0.079,-1.201zm-18.624,-11.406c3.583,0 6.498,2.915 6.498,6.498c0,3.584 -2.915,6.5 -6.498,6.5s-6.498,-2.916 -6.498,-6.5c0,-3.583 2.915,-6.498 6.498,-6.498z"/>
  </g>
  <g id="svg_5"/>
  <g id="svg_6"/>
  <g id="svg_7"/>
  <g id="svg_8"/>
  <g id="svg_9"/>
  <g id="svg_10"/>
  <g id="svg_11"/>
  <g id="svg_12"/>
  <g id="svg_13"/>
  <g id="svg_14"/>
  <g id="svg_15"/>
  <g id="svg_16"/>
  <g id="svg_17"/>
  <g id="svg_18"/>
  <g id="svg_19"/>
 </g>
</svg>